<svg
    xmlns="http://www.w3.org/2000/svg"
    viewBox="0 0 64 64"
    width="64" height="64">
    <g>
        <path fill="#FF7070" d="M32 2C18.192 2 7 13.192 7 27c0 13.785 17.158 34.182 22.947 41.318a3.755 3.755 0 0 0 5.106 0C39.842 61.182 57 40.785 57 27 57 13.192 45.808 2 32 2z"/>
    </g>
    <g>
        <circle cx="32" cy="26" r="16" fill="#E1E9EF"/>
    </g>
    <g>
        <rect x="22" y="18" width="12" height="22" rx="2" ry="2" fill="#FF5252"/>
        <rect x="26" y="20" width="4" height="6" rx="1" ry="1" fill="#BCE7F3"/>
        <path d="M34 27h4v10h-4z" fill="#FF5252"/>
        <path fill="#99A8AE" d="M34 26v11c0 1.1-.9 2-2 2h-8a2 2 0 0 1-2-2V26h2v11h8V26h2z"/>
        <path d="M38 29c-1 0-1 1-1 2v5c0 1 0 2 1 2h1v3c0 1 .9 2 2 2v-2c-.55 0-1-.45-1-1v-3h1c1 0 1-1 1-2v-5c0-1-1-2-2-2z" fill="#99A8AE"/>
        <path fill="#E1E9EF" d="M41 32v4c0 .6.4 1 1 1h1v-6h-1c-.6 0-1 .4-1 1z"/>
    </g>
</svg>
